# xmcd CD database file
#
# Track frame offsets:
#	150
#	23532
#	46157
#	69532
#
# Disc length: 1225 seconds
#
# Revision: 1
# Processed by: cddbd v1.5.1PL0 Copyright (c) Steve Scherf et al.
# Submitted via: CDex 1.51
#
DISCID=2704c704
DTITLE=福山憲三 - 愛をくれよ
DYEAR=1994
DGENRE=J-Pop
TTITLE0=愛をくれよ
TTITLE1=あの頃の唄をもう一度
TTITLE2=愛をくれよ (オリジナル・カラオケ)
TTITLE3=あの頃の唄をもう一度 (オリジナル・カラオケ)
EXTD=YEAR: 1994
EXTT0=
EXTT1=
EXTT2=
EXTT3=
PLAYORDER=
